<svg width="24" height="24" viewBox="0 0 24 24" fill="none" xmlns="http://www.w3.org/2000/svg">
<g id="Frame" clip-path="url(#clip0_1_1004)">
<path id="Union" fill-rule="evenodd" clip-rule="evenodd" d="M8 6.25C7.58579 6.25 7.25 6.58579 7.25 7C7.25 7.41421 7.58579 7.75 8 7.75H15.1893L6.46967 16.4697C6.17678 16.7626 6.17678 17.2374 6.46967 17.5303C6.76256 17.8232 7.23744 17.8232 7.53033 17.5303L16.25 8.81066V16C16.25 16.4142 16.5858 16.75 17 16.75C17.4142 16.75 17.75 16.4142 17.75 16V7C17.75 6.7937 17.6667 6.60686 17.5319 6.47126C17.5314 6.47073 17.5309 6.4702 17.5303 6.46967C17.5298 6.46914 17.5293 6.46861 17.5287 6.46808C17.4572 6.39696 17.3749 6.34324 17.2871 6.30691C17.1987 6.27024 17.1017 6.25 17 6.25H8Z" fill="black" fill-opacity="0.4"/>
</g>
<defs>
<clipPath id="clip0_1_1004">
<rect width="24" height="24" fill="white"/>
</clipPath>
</defs>
</svg>
